<mxfile host="app.diagrams.net" modified="2020-06-18T15:14:20.068Z" agent="5.0 (Windows NT 10.0; Win64; x64) AppleWebKit/537.36 (KHTML, like Gecko) Chrome/83.0.4103.106 Safari/537.36" etag="8kEUCtygjcvAi90PzPQ2" version="13.2.6" type="github">
  <diagram id="FkGK8E_qQnHVfpTNeWdX" name="第 1 页">
    <mxGraphModel dx="1872" dy="797" grid="0" gridSize="10" guides="1" tooltips="1" connect="1" arrows="1" fold="1" page="1" pageScale="1" pageWidth="827" pageHeight="1169" math="0" shadow="0">
      <root>
        <mxCell id="0" />
        <mxCell id="1" parent="0" />
        <mxCell id="vqNYSPv_0rvL7QUYmr8h-1" value="&lt;font style=&quot;font-size: 18px&quot;&gt;A 线程&lt;/font&gt;" style="html=1;whiteSpace=wrap;comic=1;strokeWidth=2;fontFamily=Comic Sans MS;fontStyle=1;" vertex="1" parent="1">
          <mxGeometry x="250" y="210" width="90" height="40" as="geometry" />
        </mxCell>
        <mxCell id="vqNYSPv_0rvL7QUYmr8h-2" value="&lt;font style=&quot;font-size: 18px&quot;&gt;B 线程&lt;/font&gt;" style="html=1;whiteSpace=wrap;comic=1;strokeWidth=2;fontFamily=Comic Sans MS;fontStyle=1;" vertex="1" parent="1">
          <mxGeometry x="440" y="210" width="90" height="40" as="geometry" />
        </mxCell>
        <mxCell id="vqNYSPv_0rvL7QUYmr8h-12" style="edgeStyle=orthogonalEdgeStyle;rounded=0;orthogonalLoop=1;jettySize=auto;html=1;exitX=0.5;exitY=1;exitDx=0;exitDy=0;entryX=0.5;entryY=0;entryDx=0;entryDy=0;" edge="1" parent="1" source="vqNYSPv_0rvL7QUYmr8h-4" target="vqNYSPv_0rvL7QUYmr8h-6">
          <mxGeometry relative="1" as="geometry" />
        </mxCell>
        <mxCell id="vqNYSPv_0rvL7QUYmr8h-4" value="&lt;font style=&quot;font-size: 20px&quot;&gt;1&lt;/font&gt;" style="ellipse;shape=doubleEllipse;whiteSpace=wrap;html=1;aspect=fixed;" vertex="1" parent="1">
          <mxGeometry x="370" y="270" width="30" height="30" as="geometry" />
        </mxCell>
        <mxCell id="vqNYSPv_0rvL7QUYmr8h-5" value="&lt;span style=&quot;color: rgba(0 , 0 , 0 , 0) ; font-family: monospace ; font-size: 0px&quot;&gt;%3CmxGraphModel%3E%3Croot%3E%3CmxCell%20id%3D%220%22%2F%3E%3CmxCell%20id%3D%221%22%20parent%3D%220%22%2F%3E%3CmxCell%20id%3D%222%22%20value%3D%22%26lt%3Bfont%20style%3D%26quot%3Bfont-size%3A%2020px%26quot%3B%26gt%3B1%26lt%3B%2Ffont%26gt%3B%22%20style%3D%22ellipse%3Bshape%3DdoubleEllipse%3BwhiteSpace%3Dwrap%3Bhtml%3D1%3Baspect%3Dfixed%3B%22%20vertex%3D%221%22%20parent%3D%221%22%3E%3CmxGeometry%20x%3D%22370%22%20y%3D%22270%22%20width%3D%2230%22%20height%3D%2230%22%20as%3D%22geometry%22%2F%3E%3C%2FmxCell%3E%3C%2Froot%3E%3C%2FmxGraphModel%3E&lt;/span&gt;" style="text;html=1;align=center;verticalAlign=middle;resizable=0;points=[];autosize=1;" vertex="1" parent="1">
          <mxGeometry x="402" y="389" width="20" height="20" as="geometry" />
        </mxCell>
        <mxCell id="vqNYSPv_0rvL7QUYmr8h-13" style="edgeStyle=orthogonalEdgeStyle;rounded=0;orthogonalLoop=1;jettySize=auto;html=1;exitX=0.5;exitY=1;exitDx=0;exitDy=0;entryX=0.5;entryY=0;entryDx=0;entryDy=0;" edge="1" parent="1" source="vqNYSPv_0rvL7QUYmr8h-6" target="vqNYSPv_0rvL7QUYmr8h-7">
          <mxGeometry relative="1" as="geometry" />
        </mxCell>
        <mxCell id="vqNYSPv_0rvL7QUYmr8h-6" value="&lt;font style=&quot;font-size: 20px&quot;&gt;2&lt;/font&gt;" style="ellipse;shape=doubleEllipse;whiteSpace=wrap;html=1;aspect=fixed;" vertex="1" parent="1">
          <mxGeometry x="370" y="330" width="30" height="30" as="geometry" />
        </mxCell>
        <mxCell id="vqNYSPv_0rvL7QUYmr8h-7" value="&lt;font style=&quot;font-size: 20px&quot;&gt;1&lt;/font&gt;" style="ellipse;shape=doubleEllipse;whiteSpace=wrap;html=1;aspect=fixed;" vertex="1" parent="1">
          <mxGeometry x="370" y="389" width="30" height="30" as="geometry" />
        </mxCell>
        <mxCell id="vqNYSPv_0rvL7QUYmr8h-9" value="" style="edgeStyle=orthogonalEdgeStyle;rounded=0;orthogonalLoop=1;jettySize=auto;html=1;" edge="1" parent="1" source="vqNYSPv_0rvL7QUYmr8h-8" target="vqNYSPv_0rvL7QUYmr8h-4">
          <mxGeometry relative="1" as="geometry" />
        </mxCell>
        <mxCell id="vqNYSPv_0rvL7QUYmr8h-8" value="&lt;font style=&quot;font-size: 18px&quot;&gt;&lt;b&gt;原值&lt;/b&gt;&lt;/font&gt;" style="text;html=1;align=center;verticalAlign=middle;resizable=0;points=[];autosize=1;" vertex="1" parent="1">
          <mxGeometry x="270" y="275" width="50" height="20" as="geometry" />
        </mxCell>
        <mxCell id="vqNYSPv_0rvL7QUYmr8h-17" style="edgeStyle=orthogonalEdgeStyle;rounded=0;orthogonalLoop=1;jettySize=auto;html=1;entryX=1;entryY=0.5;entryDx=0;entryDy=0;" edge="1" parent="1" source="vqNYSPv_0rvL7QUYmr8h-14" target="vqNYSPv_0rvL7QUYmr8h-6">
          <mxGeometry relative="1" as="geometry" />
        </mxCell>
        <mxCell id="vqNYSPv_0rvL7QUYmr8h-14" value="&lt;font style=&quot;font-size: 18px&quot;&gt;&lt;b&gt;修改为2&lt;/b&gt;&lt;/font&gt;" style="text;html=1;align=center;verticalAlign=middle;resizable=0;points=[];autosize=1;" vertex="1" parent="1">
          <mxGeometry x="445" y="335" width="80" height="20" as="geometry" />
        </mxCell>
        <mxCell id="vqNYSPv_0rvL7QUYmr8h-18" style="edgeStyle=orthogonalEdgeStyle;rounded=0;orthogonalLoop=1;jettySize=auto;html=1;entryX=1;entryY=0.5;entryDx=0;entryDy=0;" edge="1" parent="1" source="vqNYSPv_0rvL7QUYmr8h-19">
          <mxGeometry relative="1" as="geometry">
            <mxPoint x="400" y="404" as="targetPoint" />
          </mxGeometry>
        </mxCell>
        <mxCell id="vqNYSPv_0rvL7QUYmr8h-19" value="&lt;font style=&quot;font-size: 18px&quot;&gt;&lt;b&gt;又修改为1&lt;/b&gt;&lt;/font&gt;" style="text;html=1;align=center;verticalAlign=middle;resizable=0;points=[];autosize=1;" vertex="1" parent="1">
          <mxGeometry x="435" y="394" width="100" height="20" as="geometry" />
        </mxCell>
        <mxCell id="vqNYSPv_0rvL7QUYmr8h-21" value="" style="edgeStyle=orthogonalEdgeStyle;rounded=0;orthogonalLoop=1;jettySize=auto;html=1;" edge="1" parent="1" source="vqNYSPv_0rvL7QUYmr8h-22">
          <mxGeometry relative="1" as="geometry">
            <mxPoint x="370" y="404" as="targetPoint" />
          </mxGeometry>
        </mxCell>
        <mxCell id="vqNYSPv_0rvL7QUYmr8h-22" value="&lt;font style=&quot;font-size: 18px&quot;&gt;&lt;b&gt;读取&lt;/b&gt;&lt;/font&gt;" style="text;html=1;align=center;verticalAlign=middle;resizable=0;points=[];autosize=1;" vertex="1" parent="1">
          <mxGeometry x="270" y="394" width="50" height="20" as="geometry" />
        </mxCell>
        <mxCell id="vqNYSPv_0rvL7QUYmr8h-23" value="&lt;font style=&quot;font-size: 18px&quot; color=&quot;#cc0000&quot;&gt;&lt;b&gt;误以为未修改&lt;/b&gt;&lt;/font&gt;" style="text;html=1;align=center;verticalAlign=middle;resizable=0;points=[];autosize=1;" vertex="1" parent="1">
          <mxGeometry x="325" y="440" width="120" height="20" as="geometry" />
        </mxCell>
      </root>
    </mxGraphModel>
  </diagram>
</mxfile>
